<svg xmlns="http://www.w3.org/2000/svg" width="18" height="18" viewBox="0 0 18 18" fill="none">
  <path d="M16.2502 16.2502L12.631 12.631M12.631 12.631C13.2501 12.0119 13.7412 11.277 14.0762 10.4681C14.4112 9.65927 14.5837 8.79234 14.5837 7.91684C14.5837 7.04134 14.4112 6.17441 14.0762 5.36555C13.7412 4.55669 13.2501 3.82174 12.631 3.20267C12.0119 2.5836 11.277 2.09252 10.4681 1.75748C9.65927 1.42244 8.79234 1.25 7.91684 1.25C7.04134 1.25 6.17441 1.42244 5.36555 1.75748C4.55669 2.09252 3.82174 2.5836 3.20267 3.20267C1.9524 4.45295 1.25 6.14868 1.25 7.91684C1.25 9.68499 1.9524 11.3807 3.20267 12.631C4.45295 13.8813 6.14868 14.5837 7.91684 14.5837C9.68499 14.5837 11.3807 13.8813 12.631 12.631Z" stroke="#FE4710" stroke-width="2.5" stroke-linecap="round" stroke-linejoin="round"/>
</svg>